<svg width="58" height="58" viewBox="0 0 58 58" xmlns="http://www.w3.org/2000/svg">
    <path
        d="M0.108398 32.4923V0.483887H5.38488V13.3494L14.6913 0.483887H21.1616L9.81053 16.1806L26.8536 31.8708H19.1653L5.38488 19.2081V32.4923H0.108398Z"
        fill="black" />
    <path
        d="M14.6357 0.375732H21.3764L21.3742 0.37789L9.95497 16.1674L27.1321 31.9806H19.1229L5.49634 19.4582V32.5999H0V0.375732H5.49634V13.0103L14.6357 0.375732Z"
        fill="black" />
    <path
        d="M38.035 20.9925V5.70794H24.7207V0.375732H57.8812V20.9946H38.0328L38.035 20.9925ZM43.494 15.7423H52.4222V5.70794H43.494V15.7423Z"
        fill="black" />
    <path
        d="M52.5423 57.1894V43.0055H43.3458V57.1894H38.0693V37.7898H52.5423V31.4261H38.0693V26.2471H57.8803V57.1894H52.5423Z"
        fill="black" />
    <path d="M0 57.1894V36.974H5.2523V51.8895H32.4658V57.1894H0Z" fill="black" />
</svg>